/vscmnt/brussel_pixiu_data/_data_brussel/112/vsc11236/PredSimResults/SUBJ06opt3D/expIG/worker_05.mot
version=1
nRows=10
nColumns=50
inDegrees=yes
endheader
                time	         pelvis_tilt	         pelvis_list	     pelvis_rotation	           pelvis_tx	           pelvis_ty	           pelvis_tz	       hip_flexion_r	     hip_adduction_r	      hip_rotation_r	        knee_angle_r	       ankle_angle_r	         mtp_angle_r	       hip_flexion_l	     hip_adduction_l	      hip_rotation_l	        knee_angle_l	       ankle_angle_l	         mtp_angle_l	    lumbar_extension	      lumbar_bending	     lumbar_rotation	 ercspn_r/activation	 intobl_r/activation	 extobl_r/activation	    abd_r/activation	    add_r/activation	hamstrings_r/activation	bifemsh_r/activation	glut_max_r/activation	iliopsoas_r/activation	rect_fem_r/activation	  vasti_r/activation	gastroc_r/activation	 soleus_r/activation	tib_ant_r/activation	 ercspn_l/activation	 intobl_l/activation	 extobl_l/activation	    abd_l/activation	    add_l/activation	hamstrings_l/activation	bifemsh_l/activation	glut_max_l/activation	iliopsoas_l/activation	rect_fem_l/activation	  vasti_l/activation	gastroc_l/activation	 soleus_l/activation	tib_ant_l/activation	
          1.93766159	         -3.80026275	          2.42579254	         -5.87704453	          1.93766159	          0.93905742	          0.01197140	        -10.92467210	         -3.18155257	         -8.97785421	        -11.97316160	          8.52976657	         32.00134799	         28.24554744	          0.06708118	        -10.12098933	         -9.36783712	         -0.86831803	          0.22062250	         -5.48574731	         -0.98940505	          7.89099987	          0.11368902	          0.00999999	          0.00999999	          0.07801800	          0.00999999	          0.00999999	          0.18063880	          0.01550410	          0.26901930	          0.02181361	          0.00999999	          0.21351438	          0.33476563	          0.01794922	          0.18783070	          0.18816963	          0.00999999	          0.00999999	          0.32097205	          0.04082533	          0.01000000	          0.01440963	          0.12080711	          0.01324618	          0.08631792	          0.00999999	          0.00999999	          0.52006201	
          1.95057934	         -3.87652145	          2.37526592	         -5.83068874	          1.95393796	          0.93751043	          0.01098085	        -11.38587906	         -3.33264924	         -9.47882254	        -12.76366418	          7.56034010	         33.73156161	         27.84448520	          0.17899059	        -10.08406539	        -10.05136746	         -1.31789460	          0.20113875	         -5.09873574	         -1.34424895	          8.34002762	          0.12217235	          0.00999999	          0.00999999	          0.06419672	          0.00999999	          0.00999999	          0.15723354	          0.01275747	          0.22297524	          0.01794922	          0.00999999	          0.17880825	          0.31221504	          0.01476942	          0.16007067	          0.16741047	          0.00999999	          0.00999999	          0.26411024	          0.04232112	          0.00999999	          0.01185689	          0.09940552	          0.01089956	          0.10898060	          0.01476942	          0.01476942	          0.52712965	
          1.96349708	         -3.93647125	          2.35167671	         -5.74951900	          1.97056750	          0.93621215	          0.00992689	        -11.72777059	         -3.54198020	         -9.98067119	        -13.82236348	          6.45163808	         35.47936503	         27.24231176	          0.29544762	        -10.07398524	        -10.66061002	         -1.58397134	          0.18816820	         -4.69282261	         -1.74607952	          8.74220456	          0.11483938	          0.00999999	          0.00999999	          0.05282395	          0.00999999	          0.00999999	          0.17178215	          0.01049742	          0.28431229	          0.01476943	          0.00999999	          0.14713147	          0.28627559	          0.01215295	          0.13171335	          0.13775286	          0.00999999	          0.03388296	          0.21732179	          0.05936440	          0.01215295	          0.00999999	          0.08179534	          0.00999999	          0.11254337	          0.01215295	          0.01215295	          0.58250737	
          1.97641482	         -3.98417416	          2.35668728	         -5.62423835	          1.98723397	          0.93532042	          0.00874778	        -11.82362632	         -3.83002680	        -10.48528501	        -15.33148287	          5.18214543	         37.24365973	         26.56405515	          0.43670610	        -10.21968175	        -11.15430876	         -1.88362631	          0.15904292	         -4.30551382	         -2.18785638	          9.08338320	          0.15764517	          0.00999999	          0.00999999	          0.04346592	          0.00999999	          0.00999999	          0.14575360	          0.00999999	          0.23611324	          0.01215295	          0.00999999	          0.12106639	          0.24913608	          0.00999999	          0.13168329	          0.11334925	          0.00999999	          0.08555754	          0.17882214	          0.06210604	          0.00999999	          0.06575325	          0.06730488	          0.00999999	          0.13685987	          0.00999999	          0.00999999	          0.61159761	
          1.98933257	         -4.02098274	          2.39067969	         -5.46410028	          2.00368906	          0.93507740	          0.00744654	        -11.59407032	         -4.21315104	        -10.99091223	        -17.37782545	          3.67424515	         38.97867956	         25.90565079	          0.60263161	        -10.42968235	        -11.73823051	         -1.79793827	          0.13693942	         -3.95875298	         -2.66286310	          9.36674762	          0.20467199	          0.00999999	          0.00999999	          0.03576571	          0.01506082	          0.06209381	          0.11993262	          0.00999999	          0.19428460	          0.00999999	          0.00999999	          0.09961887	          0.20500037	          0.00999999	          0.12115697	          0.09326886	          0.00999999	          0.13093377	          0.14714290	          0.06567396	          0.01000000	          0.07809946	          0.05538148	          0.00999999	          0.17386859	          0.00999999	          0.00999999	          0.57503176	
          2.00225031	         -4.04952881	          2.44998343	         -5.28702922	          2.01975374	          0.93568714	          0.00604263	        -10.99156531	         -4.70027888	        -11.48693283	        -19.99294112	          1.88271923	         40.50479977	         25.26901017	          0.81207835	        -10.53799088	        -12.42217716	         -1.13664959	          0.21565059	         -3.66219388	         -3.15832186	          9.60700044	          0.22578057	          0.00999999	          0.00999999	          0.02942964	          0.13960126	          0.11106521	          0.11702971	          0.00999999	          0.15986611	          0.00999999	          0.00999999	          0.08197089	          0.16868353	          0.00999999	          0.11894652	          0.07674582	          0.00999999	          0.14913080	          0.12107582	          0.06849225	          0.00999999	          0.10785860	          0.04557038	          0.00999999	          0.20513050	          0.00999999	          0.00999999	          0.50038073	
          2.01516805	         -4.07270374	          2.49338320	         -5.09572586	          2.03533395	          0.93720344	          0.00458127	        -10.01088065	         -5.24992427	        -12.00261657	        -23.15174581	         -0.15602308	         41.46639845	         24.57555189	          1.03582969	        -10.52926499	        -12.99899206	         -0.23279106	          0.43701894	         -3.42188266	         -3.62613420	          9.80454051	          0.22039755	          0.00999999	          0.00999999	          0.02421603	          0.20009249	          0.13559425	          0.10748998	          0.00999999	          0.13154502	          0.00999999	          0.00999999	          0.06744934	          0.13880040	          0.00999999	          0.11388951	          0.06314991	          0.00999999	          0.15385564	          0.11037074	          0.07341470	          0.01000000	          0.08875091	          0.03749736	          0.00999999	          0.20627525	          0.00999999	          0.00999999	          0.42465399	
          2.02808580	         -4.09180016	          2.47915719	         -4.88995517	          2.05041191	          0.93949208	          0.00310448	         -8.67488137	         -5.82896996	        -12.55848790	        -26.83523547	         -2.23449700	         41.31840895	         23.77137971	          1.22961418	        -10.44948506	        -13.31856384	          0.59524899	          0.76947413	         -3.24083328	         -4.02124543	          9.95561188	          0.20841086	          0.00999999	          0.00999999	          0.01992604	          0.23781088	          0.13184928	          0.08844760	          0.00999999	          0.10824116	          0.00999999	          0.00999999	          0.05550035	          0.11421121	          0.00999999	          0.11167324	          0.05196259	          0.00999999	          0.14588954	          0.09081801	          0.07860319	          0.00999999	          0.07881130	          0.03085451	          0.00999999	          0.19987078	          0.00999999	          0.00999999	          0.37057799	
          2.04100354	         -4.10626213	          2.38063507	         -4.66741387	          2.06501787	          0.94234385	          0.00164114	         -7.03587465	         -6.41270685	        -13.12259242	        -30.90977554	         -4.46765957	         40.14795440	         22.83797184	          1.36195219	        -10.32240596	        -13.33602451	          1.23185003	          1.14874958	         -3.11895107	         -4.31617274	         10.05402268	          0.20253925	          0.00999999	          0.00999999	          0.01639604	          0.25637594	          0.12744795	          0.10137032	          0.00999999	          0.08906570	          0.00999999	          0.00999999	          0.04566818	          0.09397812	          0.00999999	          0.09452862	          0.04275715	          0.00999999	          0.12876141	          0.07472915	          0.08331703	          0.00999999	          0.07286445	          0.02538848	          0.00999999	          0.18644857	          0.00999999	          0.00999999	          0.33579089	
          2.05392129	         -4.11420638	          2.18525678	         -4.42679215	          2.07917275	          0.94553500	          0.00019803	         -5.15876835	         -6.98183324	        -13.65219397	        -35.20804203	         -6.90897313	         38.02796114	         21.79923396	          1.41211329	        -10.15039838	        -13.10783540	          1.70802215	          1.53228675	         -3.05852951	         -4.49560913	         10.09815593	          0.20729116	          0.00999999	          0.00999999	          0.01349140	          0.22396368	          0.17851448	          0.10279396	          0.00999999	          0.07328726	          0.00999999	          0.00999999	          0.03757783	          0.07732943	          0.02502852	          0.07778240	          0.03518251	          0.00999999	          0.11916833	          0.06149050	          0.08459737	          0.00999999	          0.05995615	          0.02089078	          0.00999999	          0.16123784	          0.00999999	          0.00999999	          0.31307945	
